<svg xmlns="http://www.w3.org/2000/svg" width="20" height="15" viewBox="0 0 20 15"><defs><style>.a{fill:#c4bc94;}</style></defs><g transform="translate(0 -80)"><g transform="translate(13.257 82.712)"><path class="a" d="M339.392,149.8l6.742,4.7v-9.6Z" transform="translate(-339.392 -144.896)"/></g><g transform="translate(0 82.712)"><path class="a" d="M0,144.9v9.6l6.742-4.7Z" transform="translate(0 -144.896)"/></g><g transform="translate(0.037 80)"><g transform="translate(0 0)"><path class="a" d="M19.672,80H2.172A1.283,1.283,0,0,0,.96,81.173l9.962,7.241,9.962-7.241A1.283,1.283,0,0,0,19.672,80Z" transform="translate(-0.96 -80)"/></g></g><g transform="translate(0.04 88.36)"><g transform="translate(0 0)"><path class="a" d="M13.1,277.921l-1.769,1.285a.579.579,0,0,1-.687,0L8.871,277.92,1.024,283.4a1.28,1.28,0,0,0,1.21,1.164h17.5a1.28,1.28,0,0,0,1.21-1.164Z" transform="translate(-1.024 -277.92)"/></g></g></g></svg>