<svg xmlns="http://www.w3.org/2000/svg" width="13" height="13" viewBox="0 0 13 13"><defs><style>.a{fill:#fff;}</style></defs><path class="a" d="M11.1,1.9A6.5,6.5,0,0,0,1.9,11.1,6.5,6.5,0,0,0,11.1,1.9ZM5.267.9a8.318,8.318,0,0,0-.689.759A7.9,7.9,0,0,0,3.565,3.287H1.748A5.754,5.754,0,0,1,5.267.9ZM1.313,4.048h1.95a7.642,7.642,0,0,0-.385,2.071H.775A5.7,5.7,0,0,1,1.313,4.048ZM.775,6.881h2.1a7.641,7.641,0,0,0,.385,2.071H1.313A5.7,5.7,0,0,1,.775,6.881Zm.973,2.833H3.565a7.9,7.9,0,0,0,1.013,1.632,8.31,8.31,0,0,0,.689.759A5.754,5.754,0,0,1,1.748,9.713Zm4.371,2.139a7.487,7.487,0,0,1-.947-.983,7.255,7.255,0,0,1-.761-1.156H6.119Zm0-2.9H4.068a6.816,6.816,0,0,1-.427-2.071H6.119Zm0-2.833H3.641a6.815,6.815,0,0,1,.427-2.071H6.119Zm0-2.833H4.412a7.252,7.252,0,0,1,.742-1.133,7.485,7.485,0,0,1,.965-1Zm6.106,2.833h-2.1a7.641,7.641,0,0,0-.385-2.071h1.95A5.7,5.7,0,0,1,12.225,6.119Zm-.973-2.833H9.435A7.9,7.9,0,0,0,8.422,1.654,8.31,8.31,0,0,0,7.733.9,5.754,5.754,0,0,1,11.252,3.287ZM6.881,1.148a7.487,7.487,0,0,1,.947.983,7.257,7.257,0,0,1,.761,1.156H6.881Zm0,2.9H8.932a6.815,6.815,0,0,1,.427,2.071H6.881Zm0,2.833H9.359a6.815,6.815,0,0,1-.427,2.071H6.881Zm0,4.971V9.713H8.588a7.251,7.251,0,0,1-.742,1.133A7.485,7.485,0,0,1,6.881,11.851Zm.852.253a8.318,8.318,0,0,0,.689-.759A7.9,7.9,0,0,0,9.435,9.713h1.817A5.754,5.754,0,0,1,7.733,12.1Zm3.955-3.153H9.737a7.642,7.642,0,0,0,.385-2.071h2.1A5.7,5.7,0,0,1,11.687,8.952Z"/></svg>