<svg xmlns="http://www.w3.org/2000/svg" width="15" height="15" viewBox="0 0 15 15"><defs><style>.a{fill:#fff;}</style></defs><g transform="translate(0 0)"><path class="a" d="M452.815,294.658c2,0,2.24.008,3.031.044a4.144,4.144,0,0,1,1.393.258,2.484,2.484,0,0,1,1.423,1.424,4.144,4.144,0,0,1,.258,1.392c.036.791.044,1.028.044,3.031s-.008,2.24-.044,3.031a4.151,4.151,0,0,1-.258,1.393,2.486,2.486,0,0,1-1.423,1.423,4.141,4.141,0,0,1-1.393.258c-.791.036-1.028.044-3.031.044s-2.24-.008-3.031-.044a4.142,4.142,0,0,1-1.393-.258,2.488,2.488,0,0,1-1.423-1.423,4.159,4.159,0,0,1-.258-1.393c-.036-.791-.044-1.028-.044-3.031s.008-2.24.044-3.031a4.152,4.152,0,0,1,.258-1.392,2.485,2.485,0,0,1,1.423-1.424,4.145,4.145,0,0,1,1.393-.258c.791-.036,1.028-.044,3.031-.044m0-1.351c-2.037,0-2.292.009-3.092.045a5.5,5.5,0,0,0-1.82.349,3.833,3.833,0,0,0-2.194,2.193,5.494,5.494,0,0,0-.348,1.82c-.037.8-.046,1.056-.046,3.092s.009,2.292.046,3.092a5.49,5.49,0,0,0,.348,1.82,3.834,3.834,0,0,0,2.194,2.194,5.5,5.5,0,0,0,1.82.349c.8.036,1.055.045,3.092.045s2.292-.009,3.092-.045a5.5,5.5,0,0,0,1.82-.349,3.834,3.834,0,0,0,2.194-2.194,5.491,5.491,0,0,0,.348-1.82c.037-.8.046-1.056.046-3.092s-.009-2.292-.046-3.092a5.5,5.5,0,0,0-.348-1.82,3.833,3.833,0,0,0-2.194-2.193,5.5,5.5,0,0,0-1.82-.349c-.8-.036-1.055-.045-3.092-.045" transform="translate(-445.315 -293.307)"/><path class="a" d="M465.127,309.267a3.851,3.851,0,1,0,3.851,3.851,3.851,3.851,0,0,0-3.851-3.851m0,6.351a2.5,2.5,0,1,1,2.5-2.5,2.5,2.5,0,0,1-2.5,2.5" transform="translate(-457.627 -305.618)"/></g></svg>