<svg xmlns="http://www.w3.org/2000/svg" width="12" height="15" viewBox="0 0 12 15"><defs><style>.a{fill:#c4bc94;}</style></defs><path class="a" d="M8.451,0C4.4,0,2.25,2.635,2.25,5.508A4.038,4.038,0,0,0,4.157,9.028c.335.153.29-.034.578-1.153a.269.269,0,0,0-.063-.261C2.995,5.644,4.345,1.593,8.212,1.593c5.6,0,4.55,7.864.974,7.864A1.335,1.335,0,0,1,7.794,7.813a18.034,18.034,0,0,0,.779-3.028c0-1.968-2.886-1.676-2.886.931a3.194,3.194,0,0,0,.281,1.349s-.929,3.81-1.1,4.522a10.266,10.266,0,0,0,.068,3.324.1.1,0,0,0,.177.046A11.844,11.844,0,0,0,6.64,12.033c.114-.428.584-2.166.584-2.166A2.539,2.539,0,0,0,9.377,10.91c2.828,0,4.873-2.525,4.873-5.658C14.24,2.248,11.709,0,8.451,0Z" transform="translate(-2.25)"/></svg>