<svg xmlns="http://www.w3.org/2000/svg" width="65" height="50" viewBox="0 0 65 50"><defs><style>.a{fill:#c4bc94;}</style></defs><g transform="translate(0 0)"><path class="a" d="M53.245,29.347C56.7,17.676,65.214,9.2,73.492,9.2a12.017,12.017,0,0,1,1.976.163,1.325,1.325,0,0,1,.887.561,1.184,1.184,0,0,1,.153,1l-1.7,5.762a1.324,1.324,0,0,1-1.322.907l-.135,0c-3.07,0-8.681,4.35-11.541,14.017-.113.384-.22.776-.324,1.185a15.736,15.736,0,0,1,10.51-.936c7.825,2.07,12.41,9.77,10.222,17.167A14.68,14.68,0,0,1,68.032,59.2a15.548,15.548,0,0,1-3.976-.519c-5.16-1.363-9.04-5.413-10.925-11.4A31.531,31.531,0,0,1,53.245,29.347Z" transform="translate(-51.884 -9.204)"/><path class="a" d="M21.612,9.206a12.006,12.006,0,0,1,1.975.162,1.319,1.319,0,0,1,.886.561,1.187,1.187,0,0,1,.154,1l-1.7,5.762A1.315,1.315,0,0,1,21.6,17.6l-.134,0c-3.07,0-8.682,4.35-11.542,14.017C9.81,32,9.7,32.388,9.6,32.795a15.737,15.737,0,0,1,10.51-.936c7.824,2.07,12.41,9.77,10.221,17.167A14.68,14.68,0,0,1,16.149,59.2a15.557,15.557,0,0,1-3.977-.519c-5.16-1.363-9.039-5.413-10.925-11.4a31.536,31.536,0,0,1,.115-17.938C4.816,17.677,13.331,9.206,21.612,9.206Z" transform="translate(34.123 -9.205)"/></g></svg>