<svg xmlns="http://www.w3.org/2000/svg" width="18" height="15" viewBox="0 0 18 15"><defs><style>.a{fill:#c4bc94;}</style></defs><g transform="translate(0 -48)"><g transform="translate(0 48)"><path class="a" d="M18,49.776a7.544,7.544,0,0,1-2.126.6A3.748,3.748,0,0,0,17.5,48.282a7.264,7.264,0,0,1-2.34.916,3.655,3.655,0,0,0-2.7-1.2,3.737,3.737,0,0,0-3.688,3.786,3.993,3.993,0,0,0,.086.863A10.361,10.361,0,0,1,1.253,48.69,3.885,3.885,0,0,0,.748,50.6a3.817,3.817,0,0,0,1.639,3.145A3.575,3.575,0,0,1,.72,53.282v.042a3.78,3.78,0,0,0,2.956,3.719,3.6,3.6,0,0,1-.967.125,3.184,3.184,0,0,1-.7-.065,3.739,3.739,0,0,0,3.448,2.637A7.3,7.3,0,0,1,.883,61.353,6.742,6.742,0,0,1,0,61.3,10.2,10.2,0,0,0,5.661,63c6.791,0,10.5-5.769,10.5-10.77,0-.167-.006-.329-.014-.489A7.469,7.469,0,0,0,18,49.776Z" transform="translate(0 -48)"/></g></g></svg>