<svg xmlns="http://www.w3.org/2000/svg" width="20" height="15" viewBox="0 0 20 15"><defs><style>.a{fill:#fff;}</style></defs><path class="a" d="M-123.34,678a4.81,4.81,0,0,0-.8-2.117,2.78,2.78,0,0,0-2-.906c-2.8-.213-7-.213-7-.213h-.007s-4.2,0-7,.213a2.771,2.771,0,0,0-2,.906,4.81,4.81,0,0,0-.8,2.117,34.405,34.405,0,0,0-.2,3.452v1.616a34.414,34.414,0,0,0,.2,3.452,4.809,4.809,0,0,0,.8,2.117,3.266,3.266,0,0,0,2.2.913c1.6.163,6.8.213,6.8.213s4.2-.007,7-.22a2.779,2.779,0,0,0,2-.906,4.809,4.809,0,0,0,.8-2.117,34.421,34.421,0,0,0,.2-3.452v-1.616A34.412,34.412,0,0,0-123.34,678Zm-11.865,7.029v-5.992l5.4,3.009Z" transform="translate(143.14 -674.76)"/></svg>